<svg width="22" height="22" viewBox="0 0 22 22" fill="none" xmlns="http://www.w3.org/2000/svg">
<path d="M12.0368 3.26788C12.3073 3.00069 12.6715 2.85059 13.0495 2.85059C13.4274 2.85059 13.7881 3.00069 14.0522 3.26788L20.3893 9.68146C20.6533 9.94873 20.7991 10.3112 20.7946 10.6891C20.79 11.067 20.6356 11.4295 20.3652 11.6967L13.8742 18.1103C13.6023 18.37 13.2405 18.5136 12.8668 18.5104C12.4932 18.5071 12.1375 18.3572 11.8764 18.093C11.6153 17.8287 11.4697 17.4713 11.4709 17.0976C11.4721 16.7239 11.6201 16.3638 11.883 16.095L15.7891 12.1143H2.24834C1.87031 12.1143 1.50957 11.9642 1.24547 11.6969C0.981374 11.4296 0.835551 11.0671 0.840083 10.6891C0.844616 10.3111 0.999132 9.94859 1.26964 9.68131C1.54015 9.41402 1.90449 9.26386 2.28252 9.26386H15.8233L12.0126 5.28317C11.7486 5.0159 11.6028 4.65344 11.6074 4.27552C11.6119 3.8976 11.7663 3.53515 12.0368 3.26788Z" fill="#171717"/>
</svg>
